<?xml version="1.0" encoding="utf-8"?>
<!-- Generator: Adobe Illustrator 17.0.0, SVG Export Plug-In . SVG Version: 6.00 Build 0)  -->
<!DOCTYPE svg PUBLIC "-//W3C//DTD SVG 1.1//EN" "http://www.w3.org/Graphics/SVG/1.1/DTD/svg11.dtd">
<svg version="1.1" id="Layer_1" xmlns="http://www.w3.org/2000/svg" xmlns:xlink="http://www.w3.org/1999/xlink" x="0px" y="0px"
	 width="600px" height="100px" viewBox="0 0 600 100" enable-background="new 0 0 600 100" xml:space="preserve">
<rect fill="#FFFFFF" width="600" height="100"/>
<polygon fill="#892D2C" points="96,9 96,93 68,93 68,65 40,65 40,37 12,37 12,9 "/>
<path fill="#892D2C" d="M12,9h28v28H12V9z"/>
<path fill="#A62926" d="M40,9h28v28H40V9z"/>
<path fill="#B42227" d="M68,9h28v28H68V9z"/>
<path fill="#A22023" d="M40,37h28v28H40V37z"/>
<path fill="#C22828" d="M68,37h28v28H68V37z"/>
<path fill="#AB4343" d="M68,65h28v28H68V65z"/>
<path fill="#1E1E1E" d="M186.027,92.176V37.778l-21.181,40.509h-8.68l-21.181-40.509v54.398h-15.972V10h17.129l24.306,46.76
	L184.986,10H202v82.176H186.027z"/>
<path fill="#1E1E1E" d="M254.88,92c-5.787,0-11.073-1.157-15.856-3.474c-4.785-2.315-8.894-5.39-12.326-9.225
	c-3.435-3.833-6.076-8.218-7.928-13.154c-1.853-4.934-2.778-9.983-2.778-15.147c0-5.39,0.983-10.553,2.951-15.489
	c1.968-4.934,4.706-9.299,8.218-13.097c3.511-3.796,7.657-6.814,12.442-9.054c4.783-2.238,9.991-3.36,15.625-3.36
	c5.787,0,11.071,1.196,15.856,3.588c4.783,2.392,8.872,5.523,12.269,9.396c3.394,3.873,6.018,8.277,7.87,13.211
	c1.852,4.936,2.777,9.947,2.777,15.033c0,5.392-0.983,10.535-2.951,15.433c-1.968,4.897-4.688,9.224-8.16,12.982
	c-3.472,3.758-7.601,6.759-12.384,8.997C265.72,90.881,260.512,92,254.88,92z M232.079,51c0,3.494,0.521,6.873,1.563,10.136
	c1.042,3.266,2.546,6.15,4.514,8.656c1.968,2.505,4.379,4.518,7.234,6.036c2.854,1.52,6.094,2.277,9.722,2.277
	c3.704,0,6.963-0.777,9.78-2.334c2.815-1.555,5.188-3.625,7.118-6.207c1.928-2.58,3.395-5.485,4.397-8.713
	c1.002-3.226,1.505-6.509,1.505-9.852c0-3.491-0.541-6.871-1.62-10.136c-1.081-3.264-2.604-6.15-4.572-8.656
	c-1.967-2.505-4.359-4.499-7.176-5.979c-2.817-1.481-6-2.221-9.548-2.221c-3.704,0-6.965,0.779-9.78,2.335
	c-2.817,1.557-5.208,3.607-7.176,6.15c-1.968,2.545-3.454,5.429-4.456,8.656C232.58,44.377,232.079,47.66,232.079,51z"/>
<path fill="#B42227" d="M303.894,92V9.824h37.731c4.012,0,7.715,0.83,11.111,2.489c3.395,1.66,6.308,3.819,8.738,6.481
	s4.341,5.711,5.729,9.144c1.389,3.434,2.083,6.886,2.083,10.358c0,4.785-1.041,9.241-3.125,13.369
	c-2.083,4.128-4.977,7.505-8.681,10.127L376,92h-25.463l-15.625-25.231h-8.448V92H303.894z M326.464,47.093h14.235
	c1.39,0,2.681-0.771,3.878-2.315c1.195-1.542,1.794-3.704,1.794-6.481c0-2.854-0.694-5.035-2.084-6.539
	c-1.389-1.505-2.777-2.257-4.166-2.257h-13.657L326.464,47.093L326.464,47.093z"/>
<path fill="#B42227" d="M441.564,72.5v19.676H383V10h57.522v19.676h-34.953V41.25h29.86v18.287h-29.86V72.5H441.564z"/>
<path fill="#B42227" d="M444.108,92.176L474.779,10h18.287l30.556,82.176h-23.843l-4.977-16.088h-21.875l-4.861,16.088H444.108z
	 M483.923,33.496l-7.639,27.546h14.931L483.923,33.496z"/>
<path fill="#B42227" d="M529.756,92.176V10h22.569v62.5h37.268v19.676H529.756z"/>
</svg>
